<?xml version="1.0" encoding="UTF-8"?>
<svg width="512" height="512" viewBox="0 0 512 512" fill="none" xmlns="http://www.w3.org/2000/svg">
  <rect width="512" height="512" rx="256" fill="url(#gradient)" />
  <path d="M256 128C179.307 128 118 189.307 118 256C118 322.693 179.307 384 256 384C322.693 384 384 322.693 384 256C384 189.307 322.693 128 256 128ZM256 352C197.019 352 150 304.981 150 256C150 197.019 197.019 150 256 150C304.981 150 352 197.019 352 256C352 304.981 304.981 352 256 352Z" fill="white"/>
  <path d="M256 192C211.817 192 176 227.817 176 272C176 316.183 211.817 352 256 352C300.183 352 336 316.183 336 272C336 227.817 300.183 192 256 192ZM256 320C229.49 320 208 298.51 208 272C208 245.49 229.49 224 256 224C282.51 224 304 245.49 304 272C304 298.51 282.51 320 256 320Z" fill="white"/>
  <defs>
    <linearGradient id="gradient" x1="0" y1="0" x2="512" y2="512" gradientUnits="userSpaceOnUse">
      <stop offset="0%" stop-color="#0EA5E9"/>
      <stop offset="100%" stop-color="#0369A1"/>
    </linearGradient>
  </defs>
</svg> 